<mxfile host="app.diagrams.net" modified="2022-09-14T03:56:12.156Z" agent="5.0 (Windows NT 10.0; Win64; x64) AppleWebKit/537.36 (KHTML, like Gecko) Chrome/105.0.0.0 Safari/537.36" etag="pLCGezakuPhprfZdShXx" version="20.3.0" type="github">
  <diagram id="R2lEEEUBdFMjLlhIrx00" name="Page-1">
    <mxGraphModel dx="1038" dy="579" grid="1" gridSize="10" guides="1" tooltips="1" connect="1" arrows="1" fold="1" page="1" pageScale="1" pageWidth="850" pageHeight="1100" math="0" shadow="0" extFonts="Permanent Marker^https://fonts.googleapis.com/css?family=Permanent+Marker">
      <root>
        <mxCell id="0" />
        <mxCell id="1" parent="0" />
        <mxCell id="XhKN68E5VjjHFBh2-8qC-16" style="rounded=0;orthogonalLoop=1;jettySize=auto;html=1;entryX=1;entryY=0.5;entryDx=0;entryDy=0;startArrow=none;startFill=0;endArrow=oval;endFill=0;" edge="1" parent="1" source="XhKN68E5VjjHFBh2-8qC-1" target="XhKN68E5VjjHFBh2-8qC-15">
          <mxGeometry relative="1" as="geometry" />
        </mxCell>
        <mxCell id="XhKN68E5VjjHFBh2-8qC-1" value="General User" style="rounded=0;whiteSpace=wrap;html=1;" vertex="1" parent="1">
          <mxGeometry x="240" y="230" width="120" height="60" as="geometry" />
        </mxCell>
        <mxCell id="XhKN68E5VjjHFBh2-8qC-22" style="edgeStyle=orthogonalEdgeStyle;rounded=0;orthogonalLoop=1;jettySize=auto;html=1;entryX=0.5;entryY=0;entryDx=0;entryDy=0;startArrow=none;startFill=0;endArrow=classic;endFill=1;" edge="1" parent="1" source="XhKN68E5VjjHFBh2-8qC-3" target="XhKN68E5VjjHFBh2-8qC-19">
          <mxGeometry relative="1" as="geometry" />
        </mxCell>
        <mxCell id="XhKN68E5VjjHFBh2-8qC-3" value="Reg User" style="shape=ext;margin=3;double=1;whiteSpace=wrap;html=1;align=center;" vertex="1" parent="1">
          <mxGeometry x="70" y="370" width="100" height="40" as="geometry" />
        </mxCell>
        <mxCell id="XhKN68E5VjjHFBh2-8qC-4" value="Admin" style="shape=ext;margin=3;double=1;whiteSpace=wrap;html=1;align=center;" vertex="1" parent="1">
          <mxGeometry x="430" y="370" width="100" height="40" as="geometry" />
        </mxCell>
        <mxCell id="XhKN68E5VjjHFBh2-8qC-7" style="edgeStyle=orthogonalEdgeStyle;rounded=0;orthogonalLoop=1;jettySize=auto;html=1;entryX=0.5;entryY=1;entryDx=0;entryDy=0;" edge="1" parent="1" source="XhKN68E5VjjHFBh2-8qC-6" target="XhKN68E5VjjHFBh2-8qC-1">
          <mxGeometry relative="1" as="geometry" />
        </mxCell>
        <mxCell id="XhKN68E5VjjHFBh2-8qC-8" style="edgeStyle=orthogonalEdgeStyle;rounded=0;orthogonalLoop=1;jettySize=auto;html=1;entryX=1;entryY=0.5;entryDx=0;entryDy=0;" edge="1" parent="1" source="XhKN68E5VjjHFBh2-8qC-6" target="XhKN68E5VjjHFBh2-8qC-3">
          <mxGeometry relative="1" as="geometry" />
        </mxCell>
        <mxCell id="XhKN68E5VjjHFBh2-8qC-9" style="edgeStyle=orthogonalEdgeStyle;rounded=0;orthogonalLoop=1;jettySize=auto;html=1;entryX=0;entryY=0.5;entryDx=0;entryDy=0;" edge="1" parent="1" source="XhKN68E5VjjHFBh2-8qC-6" target="XhKN68E5VjjHFBh2-8qC-4">
          <mxGeometry relative="1" as="geometry" />
        </mxCell>
        <mxCell id="XhKN68E5VjjHFBh2-8qC-6" value="ISA" style="shape=rhombus;perimeter=rhombusPerimeter;whiteSpace=wrap;html=1;align=center;" vertex="1" parent="1">
          <mxGeometry x="240" y="360" width="120" height="60" as="geometry" />
        </mxCell>
        <mxCell id="XhKN68E5VjjHFBh2-8qC-12" style="rounded=0;orthogonalLoop=1;jettySize=auto;html=1;endArrow=oval;endFill=0;entryX=0;entryY=0.5;entryDx=0;entryDy=0;" edge="1" parent="1" source="XhKN68E5VjjHFBh2-8qC-10" target="XhKN68E5VjjHFBh2-8qC-11">
          <mxGeometry relative="1" as="geometry">
            <mxPoint x="620" y="260" as="targetPoint" />
          </mxGeometry>
        </mxCell>
        <mxCell id="XhKN68E5VjjHFBh2-8qC-14" style="edgeStyle=none;rounded=0;orthogonalLoop=1;jettySize=auto;html=1;endArrow=oval;endFill=0;startArrow=none;startFill=0;" edge="1" parent="1" source="XhKN68E5VjjHFBh2-8qC-10" target="XhKN68E5VjjHFBh2-8qC-1">
          <mxGeometry relative="1" as="geometry" />
        </mxCell>
        <mxCell id="XhKN68E5VjjHFBh2-8qC-10" value="creates" style="shape=rhombus;perimeter=rhombusPerimeter;whiteSpace=wrap;html=1;align=center;" vertex="1" parent="1">
          <mxGeometry x="430" y="230" width="120" height="60" as="geometry" />
        </mxCell>
        <mxCell id="XhKN68E5VjjHFBh2-8qC-20" style="edgeStyle=orthogonalEdgeStyle;rounded=0;orthogonalLoop=1;jettySize=auto;html=1;entryX=0.5;entryY=1;entryDx=0;entryDy=0;startArrow=none;startFill=0;endArrow=classic;endFill=1;" edge="1" parent="1" source="XhKN68E5VjjHFBh2-8qC-11" target="XhKN68E5VjjHFBh2-8qC-18">
          <mxGeometry relative="1" as="geometry" />
        </mxCell>
        <mxCell id="XhKN68E5VjjHFBh2-8qC-21" style="edgeStyle=orthogonalEdgeStyle;rounded=0;orthogonalLoop=1;jettySize=auto;html=1;entryX=0.636;entryY=1.005;entryDx=0;entryDy=0;entryPerimeter=0;startArrow=none;startFill=0;endArrow=classic;endFill=1;" edge="1" parent="1" source="XhKN68E5VjjHFBh2-8qC-11" target="XhKN68E5VjjHFBh2-8qC-17">
          <mxGeometry relative="1" as="geometry">
            <Array as="points">
              <mxPoint x="660" y="200" />
              <mxPoint x="574" y="200" />
            </Array>
          </mxGeometry>
        </mxCell>
        <mxCell id="XhKN68E5VjjHFBh2-8qC-11" value="Account" style="rounded=0;whiteSpace=wrap;html=1;" vertex="1" parent="1">
          <mxGeometry x="630" y="230" width="120" height="60" as="geometry" />
        </mxCell>
        <mxCell id="XhKN68E5VjjHFBh2-8qC-15" value="Tracking_ID" style="ellipse;whiteSpace=wrap;html=1;align=center;" vertex="1" parent="1">
          <mxGeometry x="60" y="240" width="100" height="40" as="geometry" />
        </mxCell>
        <mxCell id="XhKN68E5VjjHFBh2-8qC-17" value="Email" style="ellipse;whiteSpace=wrap;html=1;align=center;" vertex="1" parent="1">
          <mxGeometry x="510" y="140" width="100" height="40" as="geometry" />
        </mxCell>
        <mxCell id="XhKN68E5VjjHFBh2-8qC-18" value="Account_ID" style="ellipse;whiteSpace=wrap;html=1;align=center;" vertex="1" parent="1">
          <mxGeometry x="670" y="140" width="100" height="40" as="geometry" />
        </mxCell>
        <mxCell id="XhKN68E5VjjHFBh2-8qC-19" value="Email" style="ellipse;whiteSpace=wrap;html=1;align=center;" vertex="1" parent="1">
          <mxGeometry x="70" y="460" width="100" height="40" as="geometry" />
        </mxCell>
      </root>
    </mxGraphModel>
  </diagram>
</mxfile>
